<svg viewBox="0 0 322 27" xmlns="http://www.w3.org/2000/svg"><g fill="none" fill-rule="evenodd"><path d="M0-15h324v60H0z"/><path d="M27.208 26.35h-4.186l-3.67-8.337H7.856L4.05 26.35H0L11.631.789h4.117l11.46 25.561zM17.67 14.239l-4.049-8.92-4.048 8.92h8.097zm45.22-9.744h-9.024V26.35H50.23V4.495h-9.127V.755H62.89v3.74zm29.644 3.809c0 3.876-2.196 6.415-5.901 7.307l5.318 10.74h-4.22l-5.147-10.603h-9.538V26.35h-3.74V.755h15.165c4.666 0 8.063 2.677 8.063 7.549zm-3.706-.206c0-2.677-1.92-3.637-4.357-3.637H73.046v7.548h11.425c2.54 0 4.357-1.2 4.357-3.911zm13.69 18.253h-3.67V.756h3.67V26.35zm31.736 0h-4.185l-3.671-8.338h-11.494l-3.809 8.338h-4.048L118.677.79h4.118l11.459 25.56zm-9.538-12.111l-4.048-8.92-4.049 8.92h8.097zm37.5 12.11h-3.705L143.072 6.864V26.35h-3.671V.756h3.637l15.405 19.556V.756h3.774V26.35zm33.11-7.17c0 3.843-3.637 6.279-6.966 7.205-1.475.412-3.019.583-4.563.583-7.72 0-14.033-5.558-14.033-13.449S176.18.173 183.865.173c4.735 0 7.823 1.613 10.876 4.666l-2.573 2.642c-2.333-2.539-4.632-3.602-8.097-3.602-5.73 0-10.67 3.636-10.67 9.675 0 6.038 4.872 9.675 10.602 9.675.995 0 1.99-.103 2.95-.343 1.785-.446 4.701-1.75 4.701-3.946v-2.882h-8.131v-3.705h11.803v6.828zm26.074 7.17h-19.316V.757h3.74V22.61h15.577v3.74zm26.83 0h-21.718V.757h21.066V4.53h-17.326v6.69h8.715v3.706h-8.715v7.685h17.978v3.74zm44.294-12.762c0 7.548-6.381 13.38-13.792 13.38-7.754 0-13.758-6.072-13.758-13.791 0-7.514 6.45-13.175 13.792-13.175 7.583 0 13.758 5.935 13.758 13.587zm-3.705-.206c0-5.627-4.632-9.607-10.087-9.607-5.695 0-10.087 4.083-10.087 9.847 0 5.524 4.769 9.572 10.121 9.572 5.49 0 10.053-4.254 10.053-9.812zm32.491-8.92h-17.258v7.101h10.499v3.809h-10.499V26.35h-3.705V.756h20.963V4.46z" fill="#000"/></g></svg>