<svg viewBox="0 0 143 26" xmlns="http://www.w3.org/2000/svg"><g fill="none" fill-rule="evenodd"><path d="M0-15h144v60H0z"/><path d="M24.428 12.695c0 3.465-1.441 7-3.808 9.504-2.333 2.504-4.77 3.396-8.166 3.396H0V0h12.35c6.966 0 12.078 5.764 12.078 12.695zm-3.774.274c0-4.94-2.985-9.229-8.269-9.229H3.671v18.115h8.783c4.975 0 8.2-4.117 8.2-8.886zm33.383-5.42c0 3.877-2.196 6.415-5.901 7.307l5.318 10.74h-4.22l-5.147-10.603H34.55v10.602h-3.74V0h15.165c4.666 0 8.063 2.677 8.063 7.549zm-3.705-.206c0-2.676-1.922-3.637-4.358-3.637H34.55v7.548h11.425c2.54 0 4.357-1.2 4.357-3.911zm32.01 18.253H60.626V0H81.69v3.774H64.365v6.69h8.714v3.706h-8.714v7.685h17.977v3.74zm29.3 0h-4.185l-3.671-8.337H92.292l-3.809 8.337h-4.048L96.065.035h4.118l11.459 25.56zm-9.538-12.111l-4.048-8.92-4.049 8.92h8.097zm39.971 12.11h-3.74V7.686l-9.091 15.818-8.852-15.817v17.91h-3.637V0h3.671l8.818 15.954L138.37 0h3.705v25.595z" fill="#000"/></g></svg>