<svg viewBox="0 0 326 27" xmlns="http://www.w3.org/2000/svg"><g fill="none" fill-rule="evenodd"><path d="M0-15h330v60H0z"/><path d="M24.909 18.87c0 6.21-7.102 8.063-12.111 8.063-5.215 0-9.126-1.51-12.797-5.25l2.607-2.504c3.294 3.053 6.245 3.98 10.705 3.98 2.848 0 7.926-.892 7.926-4.598 0-1.27-.652-2.23-1.716-2.916-1.338-.858-2.607-.926-6.381-.995l-3.843-.069c-3.98-.068-7.617-2.161-7.617-6.553 0-3.74 3.123-6.244 6.382-7.308A15.032 15.032 0 0 1 12.49.068c3.843 0 7.548 1.167 10.636 3.5l-2.093 2.985c-2.779-1.716-4.735-2.676-8.063-2.676-2.504 0-7.514.789-7.514 4.117 0 2.505 2.3 2.95 4.323 2.95h3.809c2.848 0 5.18.035 7.72 1.544 2.298 1.373 3.602 3.706 3.602 6.382zM60.282.755L52.631 26.35h-3.843L43.573 8.235 38.53 26.35h-4.05L26.831.755h3.842l5.764 18.973L41.687.755h3.636l5.387 18.973L56.37.755h3.912zM87.215 26.35H65.497V.755h21.066v3.774H69.237v6.69h8.715v3.706h-8.715v7.685h17.978v3.74zm28.408 0H93.905V.755h21.066v3.774H97.645v6.69h8.715v3.706h-8.715v7.685h17.978v3.74zm25.355-21.855h-9.023V26.35h-3.637V4.495h-9.127V.755h21.787v3.74zm40.828 3.568c0 4.53-2.985 7.411-7.48 7.411h-11.115V26.35h-3.74V.755h14.856c4.529 0 7.48 2.71 7.48 7.308zm-3.705 0c0-2.539-1.304-3.568-3.774-3.568H163.21V11.7h11.116c2.401 0 3.774-1.167 3.774-3.637zm36.059 5.524c0 7.548-6.382 13.381-13.792 13.381-7.754 0-13.758-6.073-13.758-13.792 0-7.514 6.45-13.175 13.792-13.175 7.582 0 13.758 5.936 13.758 13.587zm-3.706-.206c0-5.627-4.632-9.607-10.087-9.607-5.695 0-10.087 4.083-10.087 9.847 0 5.524 4.77 9.573 10.121 9.573 5.49 0 10.053-4.255 10.053-9.813zm30.124-8.886h-9.023V26.35h-3.637V4.495h-9.126V.755h21.787v3.74zm29.163 21.855h-4.186l-3.67-8.337H250.39l-3.808 8.337h-4.049L254.164.789h4.118l11.459 25.56zm-9.538-12.111l-4.048-8.92-4.049 8.92h8.097zm33.35-9.744h-9.024V26.35h-3.637V4.495h-9.126V.755h21.787v3.74zm32.284 9.092c0 7.548-6.382 13.381-13.792 13.381-7.754 0-13.758-6.073-13.758-13.792 0-7.514 6.45-13.175 13.792-13.175 7.582 0 13.758 5.936 13.758 13.587zm-3.705-.206c0-5.627-4.632-9.606-10.087-9.606-5.696 0-10.087 4.082-10.087 9.846 0 5.524 4.769 9.573 10.12 9.573 5.49 0 10.054-4.255 10.054-9.813z" fill="#000"/></g></svg>