<svg viewBox="0 0 580 90" xmlns="http://www.w3.org/2000/svg"><g fill="none" fill-rule="evenodd"><path d="M-5-10h590v110H-5z"/><path d="M23.724 17.388c0 2.736-.18 4.608-1.908 6.84-2.304 3.024-6.588 3.888-10.188 3.888-3.744 0-7.92-1.188-10.116-4.428C.144 21.672 0 19.764 0 17.388V.72h3.888v16.668c0 1.872.108 3.42 1.512 4.824 1.692 1.692 4.572 1.98 6.84 1.98 4.932 0 7.632-1.512 7.632-6.804V.72h3.852v16.668zm33.839 10.188h-3.888l-16.2-20.448v20.448h-3.852V.72h3.816l16.164 20.52V.72h3.96v26.856zm32.471 0H67.246V.72H89.35v3.96H71.17v7.02h9.144v3.888H71.17v8.064h18.864v3.924zm30.563 0h-4.392l-3.852-8.748h-12.06l-3.996 8.748h-4.248L104.253.756h4.32l12.024 26.82zm-10.008-12.708l-4.248-9.36-4.248 9.36h8.496zm39.455-6.228c0 4.068-2.304 6.732-6.192 7.668l5.58 11.268h-4.428l-5.4-11.124h-10.008v11.124h-3.924V.72h15.912c4.896 0 8.46 2.808 8.46 7.92zm-3.888-.216c0-2.808-2.016-3.816-4.572-3.816h-11.988v7.92h11.988c2.664 0 4.572-1.26 4.572-4.104zm30.203-3.78h-9.468v22.932h-3.816V4.644h-9.576V.72h22.86v3.924zm30.455 22.932h-3.924V15.552h-15.804v12.024h-3.888V.72h3.888v10.872h15.804V.72h3.924v26.856zm13.427 0h-3.852V.72h3.852v26.856zm33.335 0h-3.888l-16.2-20.448v20.448h-3.852V.72h3.816l16.164 20.52V.72h3.96v26.856zm34.559-7.524c0 4.032-3.816 6.588-7.308 7.56-1.548.432-3.168.612-4.788.612-8.1 0-14.724-5.832-14.724-14.112S268.047.108 276.111.108c4.968 0 8.208 1.692 11.412 4.896l-2.7 2.772c-2.448-2.664-4.86-3.78-8.496-3.78-6.012 0-11.196 3.816-11.196 10.152S270.243 24.3 276.255 24.3c1.044 0 2.088-.108 3.096-.36 1.872-.468 4.932-1.836 4.932-4.14v-3.024h-8.532v-3.888h12.384v7.164zm38.59-15.408h-9.468v22.932h-3.816V4.644h-9.576V.72h22.86v3.924zm30.455 22.932h-3.924V15.552h-15.804v12.024h-3.888V.72h3.888v10.872h15.804V.72h3.924v26.856zm32.651 0h-22.788V.72h22.104v3.96h-18.18v7.02h9.144v3.888h-9.144v8.064h18.864v3.924zm41.47-7.848c0 6.516-7.452 8.46-12.708 8.46-5.472 0-9.576-1.584-13.428-5.508l2.736-2.628c3.456 3.204 6.552 4.176 11.232 4.176 2.988 0 8.316-.936 8.316-4.824 0-1.332-.684-2.34-1.8-3.06-1.404-.9-2.736-.972-6.696-1.044l-4.032-.072c-4.176-.072-7.992-2.268-7.992-6.876 0-3.924 3.276-6.552 6.696-7.668A15.773 15.773 0 0 1 418.269 0c4.032 0 7.92 1.224 11.16 3.672l-2.196 3.132c-2.916-1.8-4.968-2.808-8.46-2.808-2.628 0-7.884.828-7.884 4.32 0 2.628 2.412 3.096 4.536 3.096h3.996c2.988 0 5.436.036 8.1 1.62 2.412 1.44 3.78 3.888 3.78 6.696zm29.375 7.848h-22.788V.72h22.104v3.96h-18.18v7.02h9.144v3.888h-9.144v8.064h18.864v3.924zm32.507-4.824c-3.24 3.816-7.668 5.472-12.6 5.472-8.28 0-15.12-5.544-15.12-14.148 0-8.136 6.3-14.004 14.328-14.004 4.968 0 9.432 2.088 12.96 5.508l-2.916 2.484c-2.88-2.412-5.976-4.068-9.828-4.068-5.904 0-10.692 4.068-10.692 10.152 0 6.516 5.472 10.116 11.52 10.116 4.212 0 6.84-1.404 9.756-4.32l2.592 2.808zM524.034 8.64c0 4.068-2.304 6.732-6.192 7.668l5.58 11.268h-4.428l-5.4-11.124h-10.008v11.124h-3.924V.72h15.912c4.896 0 8.46 2.808 8.46 7.92zm-3.888-.216c0-2.808-2.016-3.816-4.572-3.816h-11.988v7.92h11.988c2.664 0 4.572-1.26 4.572-4.104zm33.407 19.152h-22.788V.72h22.104v3.96h-18.18v7.02h9.144v3.888h-9.144v8.064h18.864v3.924zm26.423-22.932h-9.468v22.932h-3.816V4.644h-9.576V.72h22.86v3.924zm-447.6 70.54c0 7.92-6.696 14.04-14.472 14.04-8.136 0-14.436-6.372-14.436-14.472 0-7.884 6.768-13.824 14.472-13.824 7.956 0 14.436 6.228 14.436 14.256zm-3.888-.216c0-5.904-4.86-10.08-10.584-10.08-5.976 0-10.584 4.284-10.584 10.332 0 5.796 5.004 10.044 10.62 10.044 5.76 0 10.548-4.464 10.548-10.296zm33.911-9.36h-18.108v7.452h11.016v3.996h-11.016v11.52h-3.888V61.72h21.996v3.888zm44.026 15.444c0 4.032-3.816 6.588-7.308 7.56-1.548.432-3.168.612-4.788.612-8.1 0-14.724-5.832-14.724-14.112s6.732-14.004 14.796-14.004c4.968 0 8.208 1.692 11.412 4.896l-2.7 2.772c-2.448-2.664-4.86-3.78-8.496-3.78-6.012 0-11.196 3.816-11.196 10.152S188.533 85.3 194.545 85.3c1.044 0 2.088-.108 3.096-.36 1.872-.468 4.932-1.836 4.932-4.14v-3.024h-8.532v-3.888h12.384v7.164zm30.959-11.412c0 4.068-2.304 6.732-6.192 7.668l5.58 11.268h-4.428l-5.4-11.124h-10.008v11.124h-3.924V61.72h15.912c4.896 0 8.46 2.808 8.46 7.92zm-3.888-.216c0-2.808-2.016-3.816-4.572-3.816h-11.988v7.92h11.988c2.664 0 4.572-1.26 4.572-4.104zm33.407 19.152h-22.788V61.72h22.104v3.96h-18.18v7.02h9.144v3.888h-9.144v8.064h18.864v3.924zm30.563 0h-4.392l-3.852-8.748h-12.06l-3.996 8.748h-4.248l12.204-26.82h4.32l12.024 26.82zm-10.008-12.708l-4.248-9.36-4.248 9.36h8.496zm34.811-10.224h-9.468v22.932h-3.816V65.644h-9.576V61.72h22.86v3.924zm38.554 0h-9.468v22.932h-3.816V65.644h-9.576V61.72h22.86v3.924zm30.419 22.932h-4.392l-3.852-8.748h-12.06l-3.996 8.748h-4.248l12.204-26.82h4.32l12.024 26.82zm-10.008-12.708l-4.248-9.36-4.248 9.36h8.496zm37.583 4.86c0 6.516-7.452 8.46-12.708 8.46-5.472 0-9.576-1.584-13.428-5.508l2.736-2.628c3.456 3.204 6.552 4.176 11.232 4.176 2.988 0 8.316-.936 8.316-4.824 0-1.332-.684-2.34-1.8-3.06-1.404-.9-2.736-.972-6.696-1.044l-4.032-.072c-4.176-.072-7.992-2.268-7.992-6.876 0-3.924 3.276-6.552 6.696-7.668a15.773 15.773 0 0 1 4.644-.684c4.032 0 7.92 1.224 11.16 3.672l-2.196 3.132c-2.916-1.8-4.968-2.808-8.46-2.808-2.628 0-7.884.828-7.884 4.32 0 2.628 2.412 3.096 4.536 3.096h3.996c2.988 0 5.436.036 8.1 1.62 2.412 1.44 3.78 3.888 3.78 6.696zm26.171-15.084h-9.468v22.932h-3.816V65.644h-9.576V61.72h22.86v3.924zm29.483 22.932h-22.788V61.72h22.104v3.96h-18.18v7.02h9.144v3.888h-9.144v8.064h18.864v3.924z" fill="#000"/></g></svg>