<svg xmlns="http://www.w3.org/2000/svg" height="20" width="25"><g fill-rule="evenodd"><path d="M22.667 16.04a.668.668 0 0 1-.667.668H2.168a.67.67 0 0 1-.668-.668V2.168c0-.369.3-.669.668-.669H22c.368 0 .667.3.667.668V16.04zM22 0H2.168A2.171 2.171 0 0 0 0 2.168V16.04a2.17 2.17 0 0 0 2.168 2.168h.27v1h1.5v-1h16.291v1h1.501v-1H22a2.17 2.17 0 0 0 2.167-2.168V2.168A2.17 2.17 0 0 0 22-.001z"/><path d="M5.31 10.794h13.546V4.446H5.31v6.348zm15.046.184V4.263c0-.726-.59-1.317-1.316-1.317H5.128c-.727 0-1.317.591-1.317 1.317v6.715c0 .726.59 1.316 1.317 1.316H19.04c.726 0 1.316-.59 1.316-1.316zm-3.647 2.773a.749.749 0 1 0-.002 1.498.749.749 0 0 0 .002-1.498m2.897 0a.75.75 0 1 0 0 1.5.75.75 0 0 0 0-1.5"/></g></svg>