<svg xmlns="http://www.w3.org/2000/svg" height="81" width="60"><path d="M6.374.261h-2.75L.843 21.605v.031c-.22 2.879.539 4.624 1.906 5.969 1.371 1.348 3.527 2.266 6 2.718 1.217.199 1.747 1.044 1.781 2.032v45.968c0 .864.258 1.272.625 1.594.368.323.928.53 1.532.53s1.195-.207 1.562-.53c.368-.322.625-.73.625-1.594V32.386c-.02-.995.89-1.828 2-2.063 2.465-.378 4.568-1.191 5.875-2.437 1.352-1.289 2.133-3.042 1.719-6.313L21.937.355 18.749.323V19.73c-.018 1.035-.964 1.965-2 1.965-1.035 0-1.982-.93-2-1.965V.323l-4.375-.03V19.73c-.018 1.035-.964 1.965-2 1.965s-1.982-.93-2-1.965V.261zM48.96.162c-2.403 0-4.851 1.142-6.82 3.724s-3.413 6.646-3.413 12.322c0 7.324 3.243 13.39 7.019 15.44.738.423 1.087 1.103 1.045 1.757v45.046c0 .863.253 1.257.621 1.58.368.322.944.531 1.548.531s1.182-.209 1.549-.53c.368-.324.621-.718.621-1.58V33.404c.019-.848.365-1.378 1.039-1.754 3.741-2.049 7.026-8.126 7.026-15.443 0-5.676-1.445-9.74-3.414-12.322C53.812 1.305 51.363.162 48.96.162z" fill-rule="evenodd"/></svg>